# xmcd
#
# Track frame offsets:
#	150
#	16977
#	38800
#	54980
#
# Disc length: 952 seconds
#
# Revision: 2
# Processed by: cddbd v1.5.1PL2 Copyright (c) Steve Scherf et al.
# Submitted via: EasyCDDAExtractor 8.2.3.1
#
DISCID=2603b604
DTITLE=Trace Adkins - Honky Tonk Badonkadonk The Remixes
DYEAR=2005
DGENRE=Country
TTITLE0=Honky Tonk Badonkadonk Country Club Mix 126 BPM
TTITLE1=Honky Tonk Badonkadonk 70's Groove Mix 120 BPM
TTITLE2=Honky Tonk Badonkadonk Eurofunk Mix 132 BPM
TTITLE3=Honky Tonk Badonkadonk Radio Single Mix 120 BPM
EXTD=
EXTT0=
EXTT1=
EXTT2=
EXTT3=
PLAYORDER=
